<svg width="23" height="23" viewBox="0 0 23 23" fill="none" xmlns="http://www.w3.org/2000/svg">
<path d="M18.922 4.07588C17.9488 3.09299 16.7909 2.31209 15.5149 1.77803C14.2389 1.24398 12.87 0.967303 11.4868 0.963899C10.1036 0.960495 8.73329 1.23043 7.4547 1.75819C6.17612 2.28596 5.01441 3.06116 4.03632 4.03925C3.05823 5.01734 2.28303 6.17904 1.75526 7.45763C1.2275 8.73622 0.957565 10.1065 0.960969 11.4897C0.964374 12.8729 1.24105 14.2419 1.7751 15.5178C2.30916 16.7938 3.09006 17.9517 4.07295 18.9249C5.04622 19.9078 6.2041 20.6887 7.48007 21.2228C8.75604 21.7568 10.125 22.0335 11.5082 22.0369C12.8914 22.0403 14.2617 21.7704 15.5403 21.2426C16.8189 20.7149 17.9806 19.9397 18.9587 18.9616C19.9367 17.9835 20.7119 16.8218 21.2397 15.5432C21.7675 14.2646 22.0374 12.8943 22.034 11.5111C22.0306 10.1279 21.7539 8.75897 21.2199 7.483C20.6858 6.20703 19.9049 5.04915 18.922 4.07588ZM2.49748 11.5004C2.49713 10.7039 2.60275 9.91082 2.81155 9.14213C3.15561 9.88276 3.6553 10.5226 3.99514 11.2824C4.43436 12.2593 5.61373 11.9884 6.13452 12.8443C6.5967 13.6042 6.10311 14.5651 6.44905 15.3601C6.7003 15.9371 7.2928 16.0632 7.70155 16.4851C8.1192 16.9107 8.1103 17.4939 8.17405 18.0489C8.24593 18.7009 8.36261 19.3473 8.52327 19.9834C8.52327 19.9881 8.52327 19.9932 8.52702 19.9979C5.01936 18.766 2.49748 15.4224 2.49748 11.5004ZM11.4975 20.5004C10.9949 20.5003 10.4931 20.4583 9.99749 20.3748C10.0026 20.2478 10.005 20.1292 10.0176 20.0467C10.1315 19.3014 10.5047 18.5724 11.0081 18.0146C11.5055 17.4643 12.187 17.0921 12.607 16.4678C13.0186 15.8584 13.1419 15.0381 12.9722 14.326C12.7223 13.2742 11.2931 12.9231 10.5225 12.3526C10.0795 12.0245 9.6853 11.5173 9.10358 11.476C8.83545 11.4573 8.61092 11.5149 8.34514 11.4465C8.10139 11.3832 7.91014 11.252 7.65045 11.2862C7.1653 11.3499 6.8592 11.8684 6.33795 11.7981C5.84342 11.732 5.33389 11.1531 5.22139 10.682C5.07702 10.0764 5.55608 9.87995 6.06936 9.82604C6.28358 9.80354 6.52405 9.77916 6.72983 9.85791C7.00077 9.95823 7.12874 10.2235 7.37202 10.3576C7.82811 10.6079 7.92045 10.2081 7.85061 9.80307C7.74608 9.19651 7.6242 8.94948 8.16514 8.53182C8.54014 8.24401 8.86077 8.03588 8.80077 7.51885C8.76514 7.2151 8.59873 7.07776 8.75389 6.77541C8.87155 6.54526 9.19452 6.3376 9.40499 6.20026C9.94827 5.84588 11.7323 5.87213 11.0034 4.88026C10.7892 4.58916 10.394 4.06885 10.019 3.9976C9.5503 3.90901 9.34217 4.43213 9.01545 4.66276C8.67795 4.90135 8.02077 5.17229 7.6828 4.80338C7.22811 4.30698 7.9842 4.14432 8.15155 3.79745C8.22889 3.63573 8.15155 3.4112 8.02123 3.19979C8.1903 3.12854 8.36217 3.06245 8.53686 3.00151C8.64634 3.08237 8.77621 3.13107 8.91186 3.14213C9.22545 3.16276 9.52123 2.99307 9.79498 3.20682C10.0987 3.4412 10.3176 3.73745 10.7208 3.81057C11.1108 3.88135 11.5237 3.65401 11.6203 3.25463C11.6789 3.01182 11.6203 2.75541 11.564 2.50463C13.3172 2.51472 15.0287 3.03975 16.4859 4.01448C16.3922 3.97885 16.2801 3.98307 16.1419 4.04729C15.8573 4.17948 15.4542 4.51604 15.4209 4.84979C15.383 5.22854 15.9417 5.28198 16.207 5.28198C16.6055 5.28198 17.009 5.10385 16.8806 4.64354C16.8248 4.44385 16.7489 4.2362 16.6265 4.11057C16.9207 4.31462 17.2024 4.53595 17.4703 4.77338C17.4661 4.7776 17.4619 4.78135 17.4576 4.78604C17.1876 5.06729 16.874 5.28995 16.6894 5.63213C16.559 5.87307 16.4123 5.98745 16.1484 6.04979C16.0031 6.08401 15.8372 6.09666 15.7153 6.19416C15.3759 6.46135 15.569 7.10354 15.8906 7.2962C16.297 7.53948 16.8998 7.4251 17.2064 7.07776C17.4459 6.80588 17.587 6.33385 18.0178 6.33432C18.2075 6.33393 18.3896 6.40818 18.525 6.54104C18.7031 6.72573 18.668 6.89823 18.7059 7.12885C18.773 7.53854 19.1344 7.31635 19.3542 7.10963C19.5145 7.39482 19.6591 7.68854 19.7873 7.98948C19.5455 8.33776 19.3533 8.71745 18.7715 8.31151C18.4233 8.06823 18.209 7.71526 17.7717 7.60557C17.3897 7.51182 16.9983 7.60932 16.6209 7.67448C16.192 7.74901 15.6834 7.78182 15.3581 8.10666C15.0436 8.41979 14.8772 8.83885 14.5425 9.15338C13.8951 9.76276 13.6219 10.4279 14.0409 11.2895C14.444 12.1178 15.2873 12.5673 16.1972 12.5082C17.0911 12.4487 18.0197 11.9303 17.9939 13.2292C17.9845 13.689 18.0806 14.0073 18.2217 14.4343C18.3525 14.8281 18.3436 15.2096 18.3736 15.616C18.4021 16.0919 18.4765 16.564 18.5958 17.0256C17.7556 18.1073 16.6793 18.9828 15.449 19.585C14.2188 20.1872 12.8672 20.5004 11.4975 20.5004Z" fill="#3C3950" fill-opacity="0.8"/>
</svg>
