<svg width="18" height="18" viewBox="0 0 18 18" fill="none" xmlns="http://www.w3.org/2000/svg">
<path d="M8.0457 3.67387C8.36123 3.6255 8.68002 3.60144 8.99923 3.6019C11.8598 3.6019 14.5495 5.66188 16.1147 8.99923C15.8753 9.50711 15.605 9.9998 15.3051 10.4745C15.2099 10.6219 15.1599 10.7938 15.1612 10.9693C15.1632 11.1656 15.2294 11.3558 15.3496 11.511C15.4699 11.6662 15.6376 11.7778 15.8272 11.8288C16.0168 11.8798 16.2178 11.8673 16.3997 11.7933C16.5815 11.7193 16.7342 11.5879 16.8344 11.419C17.2535 10.7605 17.6175 10.0685 17.9228 9.35006C17.9711 9.23781 17.996 9.11691 17.996 8.99473C17.996 8.87255 17.9711 8.75166 17.9228 8.63941C16.1057 4.4205 12.6874 1.80279 8.99923 1.80279C8.57704 1.80066 8.15553 1.83679 7.73986 1.91074C7.62172 1.93082 7.5087 1.97397 7.40725 2.03773C7.3058 2.10149 7.2179 2.18461 7.14856 2.28235C7.07923 2.38008 7.02983 2.49051 7.00318 2.60733C6.97652 2.72416 6.97314 2.84509 6.99322 2.96322C7.01331 3.08135 7.05646 3.19437 7.12022 3.29582C7.18398 3.39728 7.2671 3.48518 7.36483 3.55451C7.46256 3.62384 7.57299 3.67324 7.68982 3.6999C7.80664 3.72655 7.92757 3.72993 8.0457 3.70985V3.67387ZM1.54192 0.264552C1.45805 0.180678 1.35847 0.114147 1.24889 0.0687547C1.1393 0.0233628 1.02185 0 0.903236 0C0.784621 0 0.667168 0.0233628 0.557582 0.0687547C0.447997 0.114147 0.348425 0.180678 0.264552 0.264552C0.095162 0.433941 0 0.663683 0 0.903236C0 1.14279 0.095162 1.37253 0.264552 1.54192L3.05317 4.32155C1.78082 5.54632 0.768174 7.0148 0.075645 8.63941C0.0261125 8.7529 0.000545828 8.8754 0.000545828 8.99923C0.000545828 9.12306 0.0261125 9.24556 0.075645 9.35905C1.89275 13.578 5.31106 16.1957 8.99923 16.1957C10.6158 16.1845 12.1942 15.7032 13.542 14.8104L16.4565 17.7339C16.5402 17.8182 16.6397 17.8851 16.7493 17.9308C16.8589 17.9765 16.9765 18 17.0952 18C17.214 18 17.3316 17.9765 17.4412 17.9308C17.5508 17.8851 17.6503 17.8182 17.7339 17.7339C17.8182 17.6503 17.8851 17.5508 17.9308 17.4412C17.9765 17.3316 18 17.214 18 17.0952C18 16.9765 17.9765 16.8589 17.9308 16.7493C17.8851 16.6397 17.8182 16.5402 17.7339 16.4565L1.54192 0.264552ZM7.26309 8.53146L9.467 10.7354C9.31496 10.779 9.15739 10.8002 8.99923 10.7983C8.52208 10.7983 8.06447 10.6088 7.72707 10.2714C7.38967 9.934 7.20012 9.47639 7.20012 8.99923C7.19828 8.84108 7.21949 8.6835 7.26309 8.53146ZM8.99923 14.3966C6.13865 14.3966 3.44898 12.3366 1.89275 8.99923C2.47394 7.71624 3.29882 6.55836 4.32155 5.58992L5.91376 7.20012C5.53977 7.8827 5.39718 8.66815 5.50739 9.43863C5.6176 10.2091 5.97467 10.9231 6.52503 11.4734C7.07539 12.0238 7.78936 12.3809 8.55984 12.4911C9.33032 12.6013 10.1158 12.4587 10.7983 12.0847L12.2286 13.497C11.2491 14.0735 10.1358 14.3836 8.99923 14.3966Z" fill="#636173"/>
</svg>
